<svg height="200px" width="200px" version="1.1" id="_x32_" xmlns="http://www.w3.org/2000/svg" xmlns:xlink="http://www.w3.org/1999/xlink" viewBox="0 0 512 512" xml:space="preserve" fill="#000000"><g id="SVGRepo_bgCarrier" stroke-width="0"></g><g id="SVGRepo_tracerCarrier" stroke-linecap="round" stroke-linejoin="round"></g><g id="SVGRepo_iconCarrier"> <style type="text/css"> .st0{fill:#000000;} </style> <g> <path class="st0" d="M256.002,0C141.984,0,56,49.392,56,114.894v282.211C56,462.608,141.984,512,256.002,512 S456,462.608,456,397.106V114.894C456,49.392,370.02,0,256.002,0z M387.082,202.952c0.703-0.343,1.338-0.73,2.033-1.079 c4.238-2.091,8.4-4.241,12.34-6.551v60.211c0,25.777-55.334,61.73-145.453,61.73c-90.117,0-145.457-35.953-145.457-61.73v-60.34 c35.916,21.522,86.938,34.597,145.457,34.597c50.553,0,95.455-9.792,129.91-26.323 C386.293,203.288,386.703,203.133,387.082,202.952z M110.545,335.83c35.916,21.524,86.938,34.598,145.457,34.598 c50.736,0,95.797-9.853,130.301-26.494c0.238-0.113,0.498-0.211,0.736-0.324c0.855-0.418,1.627-0.886,2.469-1.312 c4.094-2.03,8.133-4.105,11.947-6.342v61.15c0,25.777-55.334,61.73-145.453,61.73c-90.117,0-145.457-35.953-145.457-61.73V335.83z M256.002,176.625c-90.117,0-145.457-35.953-145.457-61.731c0-25.777,55.34-61.73,145.457-61.73 c90.119,0,145.453,35.953,145.453,61.73C401.455,140.672,346.121,176.625,256.002,176.625z"></path> </g> </g></svg>