<svg id="visual" viewBox="0 0 960 540" width="960" height="540" xmlns="http://www.w3.org/2000/svg" xmlns:xlink="http://www.w3.org/1999/xlink" version="1.1"><g stroke-width="1" stroke-linejoin="bevel"><path d="M505.3 236L611 192L502.3 202Z" fill="#dfedff" stroke="#dfedff"></path><path d="M505.3 236L671 269L611 192Z" fill="#b2d8ff" stroke="#b2d8ff"></path><path d="M627 73L532.3 76L611 192Z" fill="#cae3ff" stroke="#cae3ff"></path><path d="M611 192L532.3 76L502.3 202Z" fill="#b2d8ff" stroke="#b2d8ff"></path><path d="M502.3 202L425.7 280L505.3 236Z" fill="#cfe5ff" stroke="#cfe5ff"></path><path d="M505.3 236L658 353L671 269Z" fill="#b8dbff" stroke="#b8dbff"></path><path d="M399.7 157L425.7 280L502.3 202Z" fill="#beddff" stroke="#beddff"></path><path d="M754.7 169L627 73L611 192Z" fill="#cae3ff" stroke="#cae3ff"></path><path d="M434.7 330L517.3 373L505.3 236Z" fill="#daeaff" stroke="#daeaff"></path><path d="M532.3 76L426.7 112L502.3 202Z" fill="#b2d8ff" stroke="#b2d8ff"></path><path d="M426.7 112L399.7 157L502.3 202Z" fill="#a6d3ff" stroke="#a6d3ff"></path><path d="M425.7 280L434.7 330L505.3 236Z" fill="#d5e8ff" stroke="#d5e8ff"></path><path d="M338 357L434.7 330L425.7 280Z" fill="#a6d3ff" stroke="#a6d3ff"></path><path d="M517.3 373L658 353L505.3 236Z" fill="#d5e8ff" stroke="#d5e8ff"></path><path d="M759.7 249L754.7 169L671 269Z" fill="#cae3ff" stroke="#cae3ff"></path><path d="M671 269L754.7 169L611 192Z" fill="#dfedff" stroke="#dfedff"></path><path d="M762.7 358L759.7 249L671 269Z" fill="#acd6ff" stroke="#acd6ff"></path><path d="M399.7 157L348 254L425.7 280Z" fill="#acd6ff" stroke="#acd6ff"></path><path d="M616 0L532.3 76L627 73Z" fill="#b2d8ff" stroke="#b2d8ff"></path><path d="M616 0L533.3 0L532.3 76Z" fill="#b8dbff" stroke="#b8dbff"></path><path d="M532.3 76L459.7 0L426.7 112Z" fill="#daeaff" stroke="#daeaff"></path><path d="M716.7 54L616 0L627 73Z" fill="#acd6ff" stroke="#acd6ff"></path><path d="M394.7 419L546.3 437L517.3 373Z" fill="#c4e0ff" stroke="#c4e0ff"></path><path d="M517.3 373L546.3 437L658 353Z" fill="#cfe5ff" stroke="#cfe5ff"></path><path d="M394.7 419L517.3 373L434.7 330Z" fill="#acd6ff" stroke="#acd6ff"></path><path d="M754.7 169L716.7 54L627 73Z" fill="#cae3ff" stroke="#cae3ff"></path><path d="M533.3 0L459.7 0L532.3 76Z" fill="#dfedff" stroke="#dfedff"></path><path d="M426.7 112L339 103L399.7 157Z" fill="#acd6ff" stroke="#acd6ff"></path><path d="M399.7 157L295 215L348 254Z" fill="#c4e0ff" stroke="#c4e0ff"></path><path d="M342 0L339 103L426.7 112Z" fill="#c4e0ff" stroke="#c4e0ff"></path><path d="M775.7 475L762.7 358L658 353Z" fill="#cae3ff" stroke="#cae3ff"></path><path d="M658 353L762.7 358L671 269Z" fill="#acd6ff" stroke="#acd6ff"></path><path d="M338 357L394.7 419L434.7 330Z" fill="#cfe5ff" stroke="#cfe5ff"></path><path d="M235.3 258L338 357L348 254Z" fill="#dfedff" stroke="#dfedff"></path><path d="M348 254L338 357L425.7 280Z" fill="#daeaff" stroke="#daeaff"></path><path d="M339 103L295 215L399.7 157Z" fill="#cfe5ff" stroke="#cfe5ff"></path><path d="M515.3 540L627 478L546.3 437Z" fill="#b2d8ff" stroke="#b2d8ff"></path><path d="M546.3 437L627 478L658 353Z" fill="#daeaff" stroke="#daeaff"></path><path d="M823.3 0L754.7 0L716.7 54Z" fill="#cfe5ff" stroke="#cfe5ff"></path><path d="M716.7 54L754.7 0L616 0Z" fill="#cae3ff" stroke="#cae3ff"></path><path d="M876.3 117L716.7 54L754.7 169Z" fill="#dfedff" stroke="#dfedff"></path><path d="M849.3 201L754.7 169L759.7 249Z" fill="#cfe5ff" stroke="#cfe5ff"></path><path d="M858.3 257L849.3 201L759.7 249Z" fill="#a6d3ff" stroke="#a6d3ff"></path><path d="M762.7 358L858.3 257L759.7 249Z" fill="#daeaff" stroke="#daeaff"></path><path d="M459.7 0L342 0L426.7 112Z" fill="#cae3ff" stroke="#cae3ff"></path><path d="M188.3 190L235.3 258L295 215Z" fill="#dfedff" stroke="#dfedff"></path><path d="M188.3 190L295 215L222.3 55Z" fill="#daeaff" stroke="#daeaff"></path><path d="M295 215L235.3 258L348 254Z" fill="#daeaff" stroke="#daeaff"></path><path d="M338 357L291 445L394.7 419Z" fill="#d5e8ff" stroke="#d5e8ff"></path><path d="M394.7 419L515.3 540L546.3 437Z" fill="#cfe5ff" stroke="#cfe5ff"></path><path d="M849.3 201L876.3 117L754.7 169Z" fill="#dfedff" stroke="#dfedff"></path><path d="M960 157L876.3 117L849.3 201Z" fill="#beddff" stroke="#beddff"></path><path d="M515.3 540L628 540L627 478Z" fill="#dfedff" stroke="#dfedff"></path><path d="M775.7 475L849.3 379L762.7 358Z" fill="#a6d3ff" stroke="#a6d3ff"></path><path d="M762.7 358L849.3 379L858.3 257Z" fill="#b8dbff" stroke="#b8dbff"></path><path d="M775.7 475L658 353L627 478Z" fill="#a6d3ff" stroke="#a6d3ff"></path><path d="M858.3 257L960 252L849.3 201Z" fill="#b2d8ff" stroke="#b2d8ff"></path><path d="M739.7 540L775.7 475L627 478Z" fill="#dfedff" stroke="#dfedff"></path><path d="M876.3 117L823.3 0L716.7 54Z" fill="#acd6ff" stroke="#acd6ff"></path><path d="M394.7 419L391.7 540L515.3 540Z" fill="#a6d3ff" stroke="#a6d3ff"></path><path d="M200.3 365L291 445L338 357Z" fill="#daeaff" stroke="#daeaff"></path><path d="M341 540L391.7 540L394.7 419Z" fill="#beddff" stroke="#beddff"></path><path d="M222.3 55L295 215L339 103Z" fill="#cae3ff" stroke="#cae3ff"></path><path d="M235.3 258L200.3 365L338 357Z" fill="#cae3ff" stroke="#cae3ff"></path><path d="M342 0L222.3 55L339 103Z" fill="#c4e0ff" stroke="#c4e0ff"></path><path d="M628 540L739.7 540L627 478Z" fill="#daeaff" stroke="#daeaff"></path><path d="M775.7 475L844.3 467L849.3 379Z" fill="#d5e8ff" stroke="#d5e8ff"></path><path d="M841.3 540L844.3 467L775.7 475Z" fill="#b8dbff" stroke="#b8dbff"></path><path d="M960 367L960 252L858.3 257Z" fill="#d5e8ff" stroke="#d5e8ff"></path><path d="M115.7 342L200.3 365L235.3 258Z" fill="#acd6ff" stroke="#acd6ff"></path><path d="M291 445L341 540L394.7 419Z" fill="#beddff" stroke="#beddff"></path><path d="M211.3 540L341 540L291 445Z" fill="#cfe5ff" stroke="#cfe5ff"></path><path d="M960 367L858.3 257L849.3 379Z" fill="#b8dbff" stroke="#b8dbff"></path><path d="M876.3 117L960 64L823.3 0Z" fill="#cfe5ff" stroke="#cfe5ff"></path><path d="M960 252L960 157L849.3 201Z" fill="#dfedff" stroke="#dfedff"></path><path d="M114.7 61L96.7 161L188.3 190Z" fill="#cfe5ff" stroke="#cfe5ff"></path><path d="M342 0L206.3 0L222.3 55Z" fill="#daeaff" stroke="#daeaff"></path><path d="M115.7 342L201.3 424L200.3 365Z" fill="#daeaff" stroke="#daeaff"></path><path d="M200.3 365L201.3 424L291 445Z" fill="#cfe5ff" stroke="#cfe5ff"></path><path d="M960 157L960 64L876.3 117Z" fill="#d5e8ff" stroke="#d5e8ff"></path><path d="M960 475L960 367L849.3 379Z" fill="#d5e8ff" stroke="#d5e8ff"></path><path d="M739.7 540L841.3 540L775.7 475Z" fill="#daeaff" stroke="#daeaff"></path><path d="M844.3 467L960 475L849.3 379Z" fill="#b2d8ff" stroke="#b2d8ff"></path><path d="M960 64L960 0L823.3 0Z" fill="#beddff" stroke="#beddff"></path><path d="M75.7 289L115.7 342L235.3 258Z" fill="#dfedff" stroke="#dfedff"></path><path d="M75.7 289L235.3 258L188.3 190Z" fill="#a6d3ff" stroke="#a6d3ff"></path><path d="M114.7 61L188.3 190L222.3 55Z" fill="#beddff" stroke="#beddff"></path><path d="M206.3 0L114.7 61L222.3 55Z" fill="#cae3ff" stroke="#cae3ff"></path><path d="M201.3 424L211.3 540L291 445Z" fill="#daeaff" stroke="#daeaff"></path><path d="M130.7 540L211.3 540L201.3 424Z" fill="#acd6ff" stroke="#acd6ff"></path><path d="M841.3 540L960 475L844.3 467Z" fill="#beddff" stroke="#beddff"></path><path d="M96.7 161L75.7 289L188.3 190Z" fill="#dfedff" stroke="#dfedff"></path><path d="M115.7 342L87.7 444L201.3 424Z" fill="#acd6ff" stroke="#acd6ff"></path><path d="M841.3 540L960 540L960 475Z" fill="#beddff" stroke="#beddff"></path><path d="M0 328L87.7 444L115.7 342Z" fill="#beddff" stroke="#beddff"></path><path d="M0 91L0 161L96.7 161Z" fill="#acd6ff" stroke="#acd6ff"></path><path d="M96.7 161L0 161L75.7 289Z" fill="#b2d8ff" stroke="#b2d8ff"></path><path d="M206.3 0L74.7 0L114.7 61Z" fill="#cfe5ff" stroke="#cfe5ff"></path><path d="M87.7 444L130.7 540L201.3 424Z" fill="#beddff" stroke="#beddff"></path><path d="M0 91L96.7 161L114.7 61Z" fill="#d5e8ff" stroke="#d5e8ff"></path><path d="M75.7 289L0 328L115.7 342Z" fill="#b8dbff" stroke="#b8dbff"></path><path d="M0 161L0 287L75.7 289Z" fill="#d5e8ff" stroke="#d5e8ff"></path><path d="M87.7 444L0 484L130.7 540Z" fill="#cfe5ff" stroke="#cfe5ff"></path><path d="M0 287L0 328L75.7 289Z" fill="#beddff" stroke="#beddff"></path><path d="M74.7 0L0 91L114.7 61Z" fill="#d5e8ff" stroke="#d5e8ff"></path><path d="M74.7 0L0 0L0 91Z" fill="#daeaff" stroke="#daeaff"></path><path d="M0 328L0 484L87.7 444Z" fill="#dfedff" stroke="#dfedff"></path><path d="M0 484L0 540L130.7 540Z" fill="#a6d3ff" stroke="#a6d3ff"></path></g></svg>